:SAMPLES-PER-SECOND 30
:FRAME-RANGE 1-2045
:FULLY-SPECIFIED
:DEGREES
448
root  52.8074 34.0336 44.8821 -178.698 33.9855 -175.185
RightUpLeg  -41.59 6.00145 0.530269
RightLeg  50.5348 2.29462 2.628
RightFoot  -7.25988 -0.255527 5.77923
RightToes  -5.28216e-011 1.2921e-014 -6.02303e-014
Spine  16.1067 -5.15413 2.74805
Spine1  4.14175 -3.98076 -3.48605
HEad  -2.29092 27.3209 -15.8672
LeftShoulder1  3.85961 -9.17914 -25.003
LeftArm  0.786764 -4.94891 -58.8938
LeftForeArm  -9.68564 -33.8478 -8.07173
LeftHand  0.0880608 -1.86487 -1.25217
RightShoulder  1.42995 3.82623 13.1145
RightArm  -13.5898 39.6174 46.6833
RightForeArm  14.4398 21.0416 4.34095
RightHand  0.236922 0.487418 4.64757
LeftUpLeg  -26.2913 1.86996 0.708117
LeftLeg  88.6321 -0.328162 5.25287
LeftFoot  -3.80768 0.216724 -2.94433
LeftToes  9.43379e-011 5.24309e-011 -4.66411e-011
449
root  53.8955 34.1355 43.6427 -179.661 31.9978 -175.82
RightUpLeg  -39.097 4.82806 0.616331
RightLeg  53.601 1.70585 2.09243
RightFoot  -11.7868 -0.0609364 4.90441
RightToes  -5.28216e-011 1.2921e-014 -6.02303e-014
Spine  16.3927 -4.52498 2.57098
Spine1  4.73799 -3.0788 -5.08639
HEad  0.814215 26.2262 -14.1303
LeftShoulder1  3.69705 -8.73287 -24.7899
LeftArm  1.66683 -1.94985 -59.0815
LeftForeArm  -7.94647 -39.1139 -9.57436
LeftHand  -0.00308967 -1.84173 0.211053
RightShoulder  1.42361 4.01022 12.464
RightArm  -12.9593 39.5833 45.3276
RightForeArm  12.5822 20.9025 4.47757
RightHand  0.287356 0.799531 5.32601
LeftUpLeg  -32.6645 0.0745019 1.49692
LeftLeg  86.9837 -0.175355 5.38582
LeftFoot  -8.50025 0.0886929 -1.51837
LeftToes  9.43379e-011 5.24309e-011 -4.66411e-011
450
root  54.9108 34.4114 42.4247 179.79 29.0657 -176.695
RightUpLeg  -36.0939 2.52196 0.321454
RightLeg  54.7599 1.2884 1.55269
RightFoot  -15.7734 0.0638769 4.41225
RightToes  -5.28216e-011 1.2921e-014 -6.02303e-014
Spine  16.5627 -4.06709 1.90581
Spine1  4.52806 -2.67154 -5.59656
HEad  4.58773 25.0129 -12.2714
LeftShoulder1  3.53716 -8.19039 -24.852
LeftArm  2.53008 2.54169 -58.5525
LeftForeArm  -4.95177 -45.3601 -11.674
LeftHand  -0.0175802 -1.08438 0.423333
RightShoulder  1.38781 3.99452 11.9647
RightArm  -9.63218 38.8659 43.9775
RightForeArm  9.25359 21.5584 4.61491
RightHand  0.357466 1.29081 6.10198
LeftUpLeg  -38.0634 -1.48664 1.75763
LeftLeg  80.1923 0.836334 8.03385
LeftFoot  -10.8556 0.0677622 -0.612857
LeftToes  9.43379e-011 5.24309e-011 -4.66411e-011
451
root  55.9143 34.7725 41.2246 179.65 26.2614 -177.311
RightUpLeg  -32.8754 1.24055 0.273358
RightLeg  54.7512 0.352215 0.126339
RightFoot  -18.813 0.165324 4.48302
RightToes  -5.28216e-011 1.2921e-014 -6.02303e-014
Spine  16.3503 -3.50834 0.99012
Spine1  4.43752 -2.21669 -5.75914
HEad  7.08616 23.5115 -10.8008
LeftShoulder1  3.32931 -7.64968 -24.455
LeftArm  3.77315 6.22208 -58.3732
LeftForeArm  -2.57908 -49.7882 -13.496
LeftHand  0.0335009 -0.484683 -0.614585
RightShoulder  1.34494 3.88086 11.6319
RightArm  -5.85548 38.3634 42.9636
RightForeArm  6.34164 22.5591 4.68551
RightHand  0.430121 1.95501 6.63444
LeftUpLeg  -41.4009 -1.41889 1.82167
LeftLeg  69.4534 3.45158 10.9947
LeftFoot  -12.335 0.0728327 -0.138254
LeftToes  9.43379e-011 5.24309e-011 -4.66411e-011
452
root  56.8374 35.1726 40.0698 179.961 22.1007 -177.407
RightUpLeg  -29.383 -1.29831 0.675058
RightLeg  53.6401 -0.650425 -1.34501
RightFoot  -21.2869 0.255588 4.59422
RightToes  -5.28216e-011 1.2921e-014 -6.02303e-014
Spine  16.3562 -3.65761 0.260781
Spine1  3.80083 -2.57467 -5.43014
HEad  8.756 21.8636 -9.20543
LeftShoulder1  3.18613 -7.35034 -23.9397
LeftArm  4.82022 10.1301 -57.9185
LeftForeArm  -1.0136 -53.8694 -15.6025
LeftHand  -0.0093841 -0.294819 0.226189
RightShoulder  1.30286 3.74296 11.3702
RightArm  -2.55946 37.6911 42.7304
RightForeArm  3.77366 23.8721 4.91083
RightHand  0.463731 2.20253 6.9084
LeftUpLeg  -42.8668 -2.18579 1.68099
LeftLeg  55.186 6.08776 9.8364
LeftFoot  -10.0904 0.0592118 0.127836
LeftToes  9.43379e-011 5.24309e-011 -4.66411e-011
453
root  57.7446 35.5144 38.8228 -179.36 18.5588 -177.149
RightUpLeg  -25.8734 -3.80551 1.52722
RightLeg  51.9207 -1.4491 -2.3591
RightFoot  -23.7587 0.345527 4.65576
RightToes  -5.28216e-011 1.2921e-014 -6.02303e-014
Spine  15.039 -3.61462 -0.0740185
Spine1  4.17086 -2.67865 -5.00759
HEad  10.1307 19.8081 -7.36609
LeftShoulder1  3.1075 -7.25958 -23.4255
LeftArm  5.17859 13.4874 -57.3218
LeftForeArm  1.51655 -57.3954 -17.7451
LeftHand  0.0231233 0.642153 -0.65858
RightShoulder  1.29178 3.7206 11.2593
RightArm  -0.427797 37.3294 42.8682
RightForeArm  2.27297 24.726 5.17708
RightHand  0.482477 2.33785 7.05622
LeftUpLeg  -42.4684 -0.745125 0.589518
LeftLeg  39.3905 8.81901 8.06962
LeftFoot  -6.7117 0.0672713 -0.665966
LeftToes  9.43379e-011 5.24309e-011 -4.66411e-011
454
root  58.5462 35.7122 37.4797 -178.784 14.061 -176.673
RightUpLeg  -22.3833 -8.20777 2.34881
RightLeg  50.5575 -1.70398 -2.58057
RightFoot  -26.2284 0.402041 4.43859
RightToes  -5.28216e-011 1.2921e-014 -6.02303e-014
Spine  13.5217 -4.05485 -0.0469916
Spine1  4.6229 -3.39467 -4.18073
HEad  11.9207 17.3344 -5.17473
LeftShoulder1  2.98368 -6.98012 -22.9977
LeftArm  5.63861 15.9618 -56.9985
LeftForeArm  3.50771 -59.9561 -19.6189
LeftHand  0.0327721 1.16028 -1.08869
RightShoulder  1.27104 3.63268 11.1829
RightArm  2.15928 37.4813 43.1719
RightForeArm  0.527584 25.0234 5.33393
RightHand  0.501536 2.49612 7.18054
LeftUpLeg  -41.1046 0.611872 -1.78924
LeftLeg  25.5028 14.4632 7.73079
LeftFoot  -5.73245 0.11076 -1.55773
LeftToes  9.43379e-011 5.24309e-011 -4.66411e-011
455
root  59.248 35.8094 36.0819 -179.27 10.1018 -176.654
RightUpLeg  -18.0325 -12.6145 2.29115
RightLeg  49.3961 -1.62564 -2.38114
RightFoot  -28.6782 0.463214 4.31547
RightToes  -5.28216e-011 1.2921e-014 -6.02303e-014
Spine  13.3546 -4.29434 -0.581535
Spine1  4.05946 -4.05278 -3.14857
HEad  14.1829 14.6238 -2.78595
LeftShoulder1  2.83716 -6.59553 -22.6234
LeftArm  6.07967 18.0504 -56.8613
LeftForeArm  4.95392 -62.1426 -21.547
LeftHand  -0.00210822 3.69605 -1.30925
RightShoulder  1.28793 3.72671 11.1805
RightArm  4.38832 37.6326 43.313
RightForeArm  -0.887288 24.9921 5.3996
RightHand  0.511619 2.48887 7.33585
LeftUpLeg  -38.2395 -0.777399 -2.97224
LeftLeg  14.6039 22.8122 6.44329
LeftFoot  -4.86006 0.161517 -2.33692
LeftToes  9.43379e-011 5.24309e-011 -4.66411e-011
456
root  59.9577 35.8476 34.618 179.652 6.29237 -176.249
RightUpLeg  -12.6438 -16.695 2.29213
RightLeg  47.7875 -1.63676 -2.26849
RightFoot  -30.8375 0.583692 4.61767
RightToes  -5.28216e-011 1.2921e-014 -6.02303e-014
Spine  14.004 -4.43332 -1.30388
Spine1  3.12624 -4.85909 -1.38849
HEad  15.7092 11.9392 -0.593884
LeftShoulder1  2.71213 -6.30544 -22.1603
LeftArm  6.29697 19.3933 -57.0991
LeftForeArm  4.9397 -63.4791 -23.0074
LeftHand  -0.0778912 7.17106 -2.31922
RightShoulder  1.31657 3.85599 11.2618
RightArm  6.43151 38.0729 43.5893
RightForeArm  -1.75766 24.5793 5.35119
RightHand  0.449512 1.60354 7.32406
LeftUpLeg  -34.9216 -3.62204 -2.99414
LeftLeg  7.56969 26.6148 4.73525
LeftFoot  -2.29538 0.171145 -1.98918
LeftToes  9.43379e-011 5.24309e-011 -4.66411e-011
457
root  60.699 35.787 33.07 178.443 2.36147 -175.875
RightUpLeg  -7.17226 -20.1948 2.10018
RightLeg  46.5448 -1.72953 -2.28307
RightFoot  -32.6427 0.812964 5.50322
RightToes  -5.28216e-011 1.2921e-014 -6.02303e-014
Spine  14.9294 -4.56483 -2.59615
Spine1  1.97006 -5.77365 0.603578
HEad  16.613 9.11381 2.16554
LeftShoulder1  2.69256 -6.45314 -21.4921
LeftArm  6.8485 20.7074 -57.3342
LeftForeArm  5.13144 -63.7972 -23.3576
LeftHand  -0.0377382 5.74198 -1.54773
RightShoulder  1.38129 4.02894 11.7674
RightArm  8.60116 38.2937 43.8906
RightForeArm  -3.46506 23.121 5.21343
RightHand  0.493206 1.89029 7.7031
LeftUpLeg  -32.2814 -5.23256 -3.79234
LeftLeg  6.08319 24.6855 4.28249
LeftFoot  -0.821932 0.21429 -2.27449
LeftToes  9.43379e-011 5.24309e-011 -4.66411e-011
